HIERARCHY
ROOT Hips
{
	OFFSET 0.00000 0.00000 0.00000
	CHANNELS 6 Xposition Yposition Zposition Zrotation Yrotation Xrotation 
	JOINT LHipJoint
	{
		OFFSET 0 0 0
		CHANNELS 3 Zrotation Yrotation Xrotation
		JOINT LeftUpLeg
		{
			OFFSET 1.41261 -1.82971 0.84908
			CHANNELS 3 Zrotation Yrotation Xrotation
			JOINT LeftLeg
			{
				OFFSET 2.52554 -6.93888 0.00000
				CHANNELS 3 Zrotation Yrotation Xrotation
				JOINT LeftFoot
				{
					OFFSET 2.56654 -7.05152 0.00000
					CHANNELS 3 Zrotation Yrotation Xrotation
					JOINT LeftToeBase
					{
						OFFSET 0.21698 -0.59616 1.85369
						CHANNELS 3 Zrotation Yrotation Xrotation
						End Site
						{
							OFFSET 0.00000 -0.00000 0.97832
						}
					}
				}
			}
		}
	}
	JOINT RHipJoint
	{
		OFFSET 0 0 0
		CHANNELS 3 Zrotation Yrotation Xrotation
		JOINT RightUpLeg
		{
			OFFSET -1.12808 -1.82971 0.84907
			CHANNELS 3 Zrotation Yrotation Xrotation
			JOINT RightLeg
			{
				OFFSET -2.53425 -6.96280 0.00000
				CHANNELS 3 Zrotation Yrotation Xrotation
				JOINT RightFoot
				{
					OFFSET -2.58413 -7.09983 0.00000
					CHANNELS 3 Zrotation Yrotation Xrotation
					JOINT RightToeBase
					{
						OFFSET -0.26437 -0.72636 1.92241
						CHANNELS 3 Zrotation Yrotation Xrotation
						End Site
						{
							OFFSET -0.00000 -0.00000 1.02667
						}
					}
				}
			}
		}
	}
	JOINT LowerBack
	{
		OFFSET 0 0 0
		CHANNELS 3 Zrotation Yrotation Xrotation
		JOINT Spine
		{
			OFFSET -0.02096 2.02288 -0.14752
			CHANNELS 3 Zrotation Yrotation Xrotation
			JOINT Spine1
			{
				OFFSET 0.03477 2.03136 -0.02358
				CHANNELS 3 Zrotation Yrotation Xrotation
				JOINT Neck
				{
					OFFSET 0 0 0
					CHANNELS 3 Zrotation Yrotation Xrotation
					JOINT Neck1
					{
						OFFSET 0.00174 1.74359 0.19336
						CHANNELS 3 Zrotation Yrotation Xrotation
						JOINT Head
						{
							OFFSET -0.03054 1.76140 -0.17751
							CHANNELS 3 Zrotation Yrotation Xrotation
							End Site
							{
								OFFSET -0.00863 1.77239 -0.08120
							}
						}
					}
				}
				JOINT LeftShoulder
				{
					OFFSET 0 0 0
					CHANNELS 3 Zrotation Yrotation Xrotation
					JOINT LeftArm
					{
						OFFSET 3.68685 1.32687 -0.67367
						CHANNELS 3 Zrotation Yrotation Xrotation
						JOINT LeftForeArm
						{
							OFFSET 4.76468 -0.00000 -0.00000
							CHANNELS 3 Zrotation Yrotation Xrotation
							JOINT LeftHand
							{
								OFFSET 3.52712 -0.00000 -0.00000
								CHANNELS 3 Zrotation Yrotation Xrotation
								JOINT LeftFingerBase
								{
									OFFSET 0 0 0
									CHANNELS 3 Zrotation Yrotation Xrotation
									JOINT LeftHandIndex1
									{
										OFFSET 0.85956 -0.00000 -0.00000
										CHANNELS 3 Zrotation Yrotation Xrotation
										End Site
										{
											OFFSET 0.69300 -0.00000 -0.00000
										}
									}
								}
								JOINT LThumb
								{
									OFFSET 0 0 0
									CHANNELS 3 Zrotation Yrotation Xrotation
									End Site
									{
										OFFSET 0.70358 -0.00000 0.70358
									}
								}
							}
						}
					}
				}
				JOINT RightShoulder
				{
					OFFSET 0 0 0
					CHANNELS 3 Zrotation Yrotation Xrotation
					JOINT RightArm
					{
						OFFSET -3.31304 1.28268 -0.97357
						CHANNELS 3 Zrotation Yrotation Xrotation
						JOINT RightForeArm
						{
							OFFSET -4.90577 -0.00000 -0.00000
							CHANNELS 3 Zrotation Yrotation Xrotation
							JOINT RightHand
							{
								OFFSET -3.42692 -0.00000 0.00000
								CHANNELS 3 Zrotation Yrotation Xrotation
								JOINT RightFingerBase
								{
									OFFSET 0 0 0
									CHANNELS 3 Zrotation Yrotation Xrotation
									JOINT RightHandIndex1
									{
										OFFSET -0.74096 -0.00000 -0.00000
										CHANNELS 3 Zrotation Yrotation Xrotation
										End Site
										{
											OFFSET -0.59738 -0.00000 -0.00000
										}
									}
								}
								JOINT RThumb
								{
									OFFSET 0 0 0
									CHANNELS 3 Zrotation Yrotation Xrotation
									End Site
									{
										OFFSET -0.60650 -0.00000 0.60650
									}
								}
							}
						}
					}
				}
			}
		}
	}
}
MOTION
Frames: 16
Frame Time: .0083333
1.1492 17.7941 5.2705 0 0 0 0 0 0 -21 0 0 0 0 0 0 0 0 0 0 0 0 0 0 21 0 0 0 0 0 0 0 0 0 0 0 0 0 0 0 0 0 0 0 0 0 0 -16 0 0 21 0 0 11 0 0 0 -8 0 0 0 0 0 0 0 0 0 0 0 0 0 0 0 0 0 0 0 0 8 0 0 0 0 0 0 0 0 0 0 0 0 0 0 0 0 0
1.1492 17.7941 5.2705 1.9366 -1.4668 5.2086 0.0000 0.0000 0.0000 -18.9654 -0.5693 -2.2712 0.3436 3.7668 10.4214 0.6897 -2.6186 -15.0172 2.2117 -9.2937 -26.7186 0.0000 0.0000 0.0000 11.7993 -2.4945 -5.1084 -0.7483 -5.5253 15.4130 -0.1679 -9.2756 -15.8294 -0.0147 0.7822 -2.1498 -6.0124 -2.0468 -1.7497 0.4105 -2.7048 -2.9734 3.7797 -1.2295 -1.7925 -9.0169 -10.4372 -5.1672 5.6652 -13.8240 8.7855 2.2978 -6.8563 4.4912 -0.0000 0.0000 0.0000 -96.3677 6.3692 -3.2454 17.9204 -28.0552 -4.5118 -0.0000 -0.0000 6.4698 6.2130 -11.9942 -1.2960 -7.1250 0.0000 -0.0000 -14.5680 18.1290 9.6284 -0.0000 0.0000 0.0000 91.5229 3.7567 3.9204 -9.0558 15.2493 -1.2148 0.0000 0.0000 6.8196 -7.6208 -34.6353 4.3486 7.1250 -0.0000 -0.0000 30.5695 -62.2317 -13.4777
1.1504 17.7930 5.2758 2.0026 -1.4390 5.2066 0.0000 0.0000 0.0000 -19.0494 -0.5574 -2.2593 0.3439 3.7682 10.4253 0.6933 -2.7201 -15.0409 2.1881 -9.2473 -26.5721 0.0000 0.0000 0.0000 11.6637 -2.0765 -4.8331 -0.7211 -5.4264 15.1289 -0.2032 -9.0902 -16.0980 -0.0008 -0.1852 0.5087 -6.0475 -2.0596 -1.7514 0.4063 -2.7228 -3.0101 3.7955 -1.2359 -1.8264 -9.1153 -10.3559 -4.9396 5.7026 -13.7208 8.6052 2.3489 -6.8117 4.4004 -0.0000 -0.0000 0.0000 -96.4197 6.4299 -2.9911 18.0564 -28.2293 -4.5759 -0.0000 -0.0000 6.1632 6.2408 -11.7333 -1.2739 -7.1250 0.0000 -0.0000 -14.5666 18.3817 9.5430 -0.0000 -0.0000 0.0000 91.4677 3.6518 4.0260 -9.0539 15.2463 -1.2143 0.0000 0.0000 6.7894 -7.7664 -34.5598 4.4240 7.1250 -0.0000 -0.0000 30.3395 -62.2047 -13.3466
1.1521 17.7931 5.2812 2.0427 -1.4299 5.2411 0.0000 0.0000 0.0000 -19.1086 -0.5701 -2.2678 0.3434 3.7654 10.4176 0.6960 -2.7416 -15.0671 2.1753 -9.2220 -26.4923 0.0000 0.0000 0.0000 11.5614 -1.6237 -4.5979 -0.6957 -5.3317 14.8570 -0.2433 -8.8688 -16.3842 -0.0313 -1.1412 3.1374 -6.0461 -2.0662 -1.7924 0.3911 -2.7307 -3.0614 3.7786 -1.2380 -1.8566 -9.2074 -10.2582 -4.6441 5.7718 -13.6058 8.4188 2.4131 -6.7609 4.2976 0.0000 0.0000 0.0000 -96.4402 6.4864 -2.8198 18.1447 -28.3420 -4.6177 -0.0000 -0.0000 6.0377 6.3099 -11.7291 -1.2877 -7.1250 0.0000 -0.0000 -14.5195 18.3832 9.5096 0.0000 0.0000 0.0000 91.4614 3.5899 3.9282 -9.0173 15.1881 -1.2047 0.0000 0.0000 6.9604 -7.9497 -34.4818 4.5204 7.1250 -0.0000 -0.0000 30.0683 -62.1847 -13.2011
1.1545 17.7936 5.2840 2.1338 -1.4530 5.2993 0.0000 0.0000 0.0000 -19.2428 -0.6077 -2.3011 0.3422 3.7589 10.3994 0.6949 -2.6808 -15.0651 2.1799 -9.2312 -26.5214 0.0000 0.0000 0.0000 11.3981 -1.1765 -4.4309 -0.6728 -5.2453 14.6094 -0.2833 -8.6749 -16.6942 -0.1043 -2.0824 5.7334 -6.1030 -2.0690 -1.8539 0.3681 -2.7318 -3.1034 3.7852 -1.2364 -1.8644 -9.2844 -10.1811 -4.5130 5.8041 -13.5092 8.3946 2.4493 -6.7171 4.2690 -0.0000 0.0000 0.0000 -96.4816 6.4634 -2.7471 18.2165 -28.4335 -4.6519 -0.0000 -0.0000 6.2784 6.2995 -11.4978 -1.2606 -7.1250 0.0000 -0.0000 -14.5426 18.6087 9.4504 -0.0000 0.0000 0.0000 91.4507 3.5781 3.9068 -8.9618 15.0995 -1.1901 0.0000 0.0000 7.0907 -8.4063 -34.4080 4.7735 7.1250 -0.0000 -0.0000 29.5200 -62.2373 -12.9737
1.1559 17.7931 5.2862 2.1910 -1.4660 5.3373 0.0000 0.0000 0.0000 -19.3278 -0.6410 -2.3309 0.3424 3.7601 10.4026 0.6930 -2.6494 -15.0488 2.1825 -9.2362 -26.5371 0.0000 0.0000 0.0000 11.2860 -0.7111 -4.2278 -0.6482 -5.1502 14.3374 -0.3207 -8.5394 -17.0249 -0.2362 -3.1278 8.6348 -6.1538 -2.0834 -1.8887 0.3740 -2.7494 -3.1383 3.8189 -1.2429 -1.8769 -9.3158 -10.1145 -4.4303 5.7861 -13.4218 8.3823 2.4604 -6.6776 4.2460 0.0000 -0.0000 0.0000 -96.5469 6.4360 -2.5666 18.2977 -28.5367 -4.6906 -0.0000 -0.0000 6.4845 6.4098 -11.2572 -1.2563 -7.1250 0.0000 -0.0000 -14.4836 18.8387 9.3328 0.0000 -0.0000 0.0000 91.4111 3.5567 4.0404 -8.9065 15.0112 -1.1758 0.0000 0.0000 7.1074 -8.8833 -34.3120 5.0350 7.1250 -0.0000 -0.0000 28.9259 -62.2757 -12.7146
1.1526 17.7998 5.2866 2.0494 -1.6302 5.1018 0.0000 0.0000 0.0000 -19.1401 -0.3368 -2.1058 0.3390 3.7415 10.3506 0.6953 -2.6932 -15.0675 2.1904 -9.2520 -26.5868 0.0000 0.0000 0.0000 11.4313 0.3315 -3.4527 -0.6014 -4.9644 13.8070 -0.4071 -8.1335 -17.6684 -0.6552 -5.1773 14.4150 -6.0951 -2.0292 -1.6169 0.4408 -2.6946 -3.1112 3.8661 -1.2124 -2.0067 -9.3155 -10.0189 -4.2152 5.7892 -13.3064 8.2530 2.4854 -6.6250 4.1628 -0.0000 -0.0000 0.0000 -96.5973 6.4846 -2.2130 18.3436 -28.5948 -4.7125 -0.0000 -0.0000 6.1153 6.7656 -11.8247 -1.3926 -7.1250 0.0000 -0.0000 -14.2008 18.2721 9.3232 -0.0000 -0.0000 0.0000 91.3858 3.5070 4.2223 -8.8606 14.9380 -1.1639 0.0000 0.0000 6.9810 -9.4069 -34.1567 5.3143 7.1250 -0.0000 -0.0000 28.2212 -62.2745 -12.3765
1.1538 17.8005 5.2901 1.8322 -1.6013 5.0482 0.0000 0.0000 0.0000 -18.8744 -0.3071 -2.0183 0.3373 3.7325 10.3252 0.6971 -2.7034 -15.0856 2.1923 -9.2556 -26.5982 0.0000 0.0000 0.0000 11.6997 0.2480 -3.3876 -0.6079 -4.9906 13.8819 -0.4084 -8.0739 -17.6273 -0.6361 -5.1030 14.2024 -5.8471 -2.0517 -1.5687 0.5059 -2.7273 -3.1223 3.7965 -1.2319 -2.0482 -9.3690 -9.8975 -3.9386 5.9141 -13.1686 8.0881 2.5598 -6.5590 4.0687 0.0000 0.0000 0.0000 -96.6456 6.5647 -1.9238 18.3984 -28.6643 -4.7388 -0.0000 -0.0000 5.6714 6.9104 -12.3052 -1.4796 -7.1250 0.0000 -0.0000 -14.0716 17.7974 9.3853 0.0000 0.0000 0.0000 91.3855 3.4732 4.2411 -8.8406 14.9061 -1.1588 0.0000 0.0000 7.1199 -9.4492 -34.0872 5.3290 7.1250 -0.0000 -0.0000 28.1059 -62.2250 -12.2887
1.1544 17.7997 5.2919 1.7315 -1.6216 5.0647 0.0000 0.0000 0.0000 -18.7606 -0.3654 -2.0001 0.3366 3.7287 10.3145 0.6964 -2.6374 -15.0891 2.1685 -9.2086 -26.4500 0.0000 0.0000 0.0000 11.8234 0.2698 -3.4035 -0.6094 -4.9965 13.8987 -0.4104 -8.0631 -17.6399 -0.6099 -4.9984 13.9040 -5.7237 -2.0673 -1.5807 0.5366 -2.7481 -3.1579 3.7593 -1.2429 -2.0796 -9.3454 -9.8465 -3.9933 5.8842 -13.1017 8.2576 2.5458 -6.5259 4.1207 0.0000 0.0000 0.0000 -96.6938 6.6182 -1.7667 18.4501 -28.7297 -4.7636 -0.0000 -0.0000 5.5616 6.8723 -12.2571 -1.4657 -7.1250 0.0000 -0.0000 -14.1006 17.8460 9.3903 0.0000 0.0000 0.0000 91.3875 3.4614 4.2267 -8.8138 14.8631 -1.1519 0.0000 0.0000 7.2112 -9.3507 -34.0921 5.2734 7.1250 -0.0000 -0.0000 28.2133 -62.2044 -12.3260
1.1547 17.7988 5.2939 1.7026 -1.6890 5.0849 0.0000 0.0000 0.0000 -18.7267 -0.3618 -2.0130 0.3368 3.7293 10.3163 0.6979 -2.6062 -15.1111 2.1561 -9.1839 -26.3723 0.0000 0.0000 0.0000 11.8647 0.3835 -3.4032 -0.6060 -4.9827 13.8592 -0.4060 -8.1260 -17.6483 -0.6169 -5.0267 13.9848 -5.6855 -2.0633 -1.6218 0.5455 -2.7409 -3.1845 3.7463 -1.2393 -2.0859 -9.2677 -9.7513 -3.9451 5.8784 -12.9851 8.3050 2.5434 -6.4676 4.1129 -0.0000 0.0000 0.0000 -96.7306 6.6170 -1.6585 18.4358 -28.7116 -4.7568 -0.0000 -0.0000 5.5972 6.9069 -12.3302 -1.4818 -7.1250 0.0000 -0.0000 -14.0725 17.7732 9.3937 -0.0000 0.0000 0.0000 91.3847 3.4636 4.2463 -8.7782 14.8063 -1.1428 0.0000 0.0000 7.2845 -9.3128 -34.0709 5.2489 7.1250 -0.0000 -0.0000 28.2311 -62.1765 -12.3159
1.1556 17.7982 5.2977 1.7008 -1.7683 5.0706 0.0000 0.0000 0.0000 -18.7194 -0.2651 -2.0036 0.3367 3.7291 10.3156 0.6992 -2.6166 -15.1236 2.1614 -9.1944 -26.4053 0.0000 0.0000 0.0000 11.8749 0.4885 -3.3475 -0.6022 -4.9676 13.8162 -0.3996 -8.1799 -17.6250 -0.6195 -5.0369 14.0138 -5.6741 -2.0513 -1.6468 0.5497 -2.7239 -3.2056 3.7439 -1.2303 -2.0958 -9.1783 -9.7004 -4.0596 5.7777 -12.9147 8.5632 2.4939 -6.4329 4.1927 -0.0000 0.0000 0.0000 -96.7760 6.6380 -1.5204 18.4237 -28.6963 -4.7510 -0.0000 -0.0000 5.5669 6.9407 -12.4292 -1.5009 -7.1250 0.0000 -0.0000 -14.0435 17.6750 9.4044 -0.0000 0.0000 0.0000 91.3797 3.4232 4.3576 -8.7393 14.7440 -1.1329 0.0000 0.0000 7.3678 -9.5178 -33.8699 5.3382 7.1250 -0.0000 -0.0000 27.8137 -62.0539 -12.0375
1.1570 17.7976 5.3021 1.7383 -1.8518 5.0688 0.0000 0.0000 0.0000 -18.7684 -0.2019 -1.9880 0.3359 3.7243 10.3024 0.6988 -2.5736 -15.1265 2.1645 -9.2007 -26.4253 0.0000 0.0000 0.0000 11.8325 0.5702 -3.3172 -0.6016 -4.9651 13.8090 -0.3971 -8.2027 -17.6176 -0.5998 -4.9578 13.7883 -5.7038 -2.0337 -1.6787 0.5547 -2.6994 -3.2407 3.7655 -1.2159 -2.1156 -9.1643 -9.5641 -3.9610 5.8059 -12.7468 8.6360 2.5168 -6.3509 4.1871 0.0000 0.0000 0.0000 -96.8290 6.7268 -1.2341 18.4524 -28.7326 -4.7647 -0.0000 -0.0000 5.3944 6.9974 -12.3121 -1.4992 -7.1250 0.0000 -0.0000 -14.0118 17.7870 9.3462 0.0000 0.0000 0.0000 91.3618 3.3344 4.5169 -8.7051 14.6893 -1.1242 0.0000 0.0000 7.4681 -9.8514 -33.5000 5.4749 7.1250 -0.0000 -0.0000 27.0978 -61.8149 -11.5486
1.1596 17.7973 5.3047 1.8072 -1.9232 5.0915 0.0000 0.0000 0.0000 -18.8629 -0.1808 -2.0022 0.3349 3.7191 10.2878 0.7011 -2.5444 -15.1573 2.1671 -9.2058 -26.4413 0.0000 0.0000 0.0000 11.7377 0.6246 -3.3458 -0.6038 -4.9738 13.8340 -0.4016 -8.1847 -17.6525 -0.6098 -4.9983 13.9036 -5.7508 -2.0064 -1.7277 0.5544 -2.6608 -3.2755 3.7908 -1.1946 -2.1265 -9.1383 -9.3579 -3.7862 5.8582 -12.4913 8.6440 2.5570 -6.2259 4.1433 0.0000 0.0000 0.0000 -96.8731 6.7776 -0.9349 18.4393 -28.7160 -4.7584 -0.0000 -0.0000 5.3081 7.0254 -12.1878 -1.4903 -7.1250 0.0000 -0.0000 -14.0002 17.9072 9.2996 0.0000 0.0000 0.0000 91.3135 3.2706 4.6602 -8.6935 14.6706 -1.1212 0.0000 0.0000 7.4565 -10.0556 -33.2582 5.5545 7.1250 -0.0000 -0.0000 26.6494 -61.6535 -11.2400
1.1624 17.7967 5.3068 1.8798 -1.9893 5.1015 0.0000 0.0000 0.0000 -18.9642 -0.1538 -2.0104 0.3337 3.7124 10.2688 0.7042 -2.5552 -15.1900 2.1703 -9.2121 -26.4609 0.0000 0.0000 0.0000 11.6314 0.6260 -3.3769 -0.6052 -4.9796 13.8505 -0.4046 -8.1339 -17.6399 -0.6183 -5.0323 14.0007 -5.7935 -1.9817 -1.7693 0.5500 -2.6258 -3.2961 3.8093 -1.1757 -2.1269 -8.9621 -9.2303 -4.0981 5.6148 -12.3014 9.1252 2.4469 -6.1323 4.3011 -0.0000 0.0000 0.0000 -96.9095 6.7915 -0.7755 18.3927 -28.6571 -4.7361 -0.0000 -0.0000 5.3807 6.9266 -12.2194 -1.4729 -7.1250 0.0000 -0.0000 -14.0658 17.8804 9.3546 -0.0000 0.0000 0.0000 91.2537 3.2717 4.6537 -8.6855 14.6578 -1.1192 0.0000 0.0000 7.4127 -9.8437 -33.1199 5.4159 7.1250 -0.0000 -0.0000 26.7370 -61.4796 -11.1695
1.1632 17.7955 5.3097 1.8944 -2.0451 5.1040 0.0000 0.0000 0.0000 -18.9838 -0.1222 -2.0050 0.3327 3.7072 10.2544 0.7059 -2.5800 -15.2049 2.1715 -9.2144 -26.4685 0.0000 0.0000 0.0000 11.6178 0.6732 -3.3666 -0.6052 -4.9796 13.8504 -0.4024 -8.1429 -17.6227 -0.5947 -4.9370 13.7290 -5.7985 -1.9807 -1.7959 0.5654 -2.6232 -3.3185 3.8276 -1.1734 -2.1347 -8.7687 -9.0362 -4.4901 5.3957 -12.0226 9.6978 2.3431 -5.9925 4.4954 0.0000 0.0000 0.0000 -96.9529 6.8721 -0.6739 18.3877 -28.6508 -4.7337 -0.0000 -0.0000 5.4650 6.8194 -12.3827 -1.4690 -7.1250 0.0000 -0.0000 -14.1291 17.7257 9.4491 0.0000 0.0000 0.0000 91.2129 3.3258 4.4267 -8.6736 14.6388 -1.1162 0.0000 0.0000 7.4593 -9.3435 -32.9328 5.1116 7.1250 -0.0000 -0.0000 27.0773 -61.1932 -11.1387
1.1627 17.7951 5.3135 1.9458 -2.0688 5.1004 0.0000 0.0000 0.0000 -19.0441 -0.1275 -1.9788 0.3327 3.7068 10.2532 0.7075 -2.5900 -15.2211 2.1746 -9.2207 -26.4881 0.0000 0.0000 0.0000 11.5780 0.7675 -3.3316 -0.6068 -4.9862 13.8691 -0.3956 -8.2454 -17.6402 -0.5665 -4.8204 13.3969 -5.8621 -2.0000 -1.8179 0.5838 -2.6480 -3.3495 3.8819 -1.1830 -2.1486 -8.4701 -8.7335 -4.9713 5.1126 -11.5963 10.3867 2.2106 -5.7789 4.7219 0.0000 -0.0000 0.0000 -97.0272 6.9717 -0.5769 18.3809 -28.6422 -4.7304 -0.0000 -0.0000 5.5242 6.7968 -12.4948 -1.4771 -7.1250 0.0000 -0.0000 -14.1377 17.6174 9.4901 0.0000 -0.0000 0.0000 91.1848 3.3170 4.3480 -8.6799 14.6488 -1.1178 0.0000 0.0000 7.5813 -9.0920 -32.7632 4.9497 7.1250 -0.0000 -0.0000 27.1767 -60.9836 -11.0470
